<svg xmlns="http://www.w3.org/2000/svg" viewBox="0 0 200 200">
  <defs>
    <radialGradient id="fan_on_bg" cx="28%" cy="26%" r="72%" fx="22%" fy="20%">
      <stop offset="0%" stop-color="#fff" stop-opacity=".2"/>
      <stop offset="50%" stop-color="#16a34a"/>
      <stop offset="100%" stop-color="#15803d"/>
    </radialGradient>
    <style>
      @keyframes spin{to{transform:rotate(360deg)}}@keyframes airflow{0%,to{opacity:.2}50%{opacity:.75}}.rotor{animation:spin 1.2s linear infinite;transform-origin:100px 100px}.arc1,.arc2,.arc3{animation:airflow 1.4s ease-in-out infinite}.arc2{animation-delay:.25s}.arc3{animation-delay:.5s}
    </style>
  </defs>
  <circle cx="100" cy="100" r="87" fill="url(#fan_on_bg)"/>
  <rect width="12" height="18" x="94" y="38" fill="#fff" rx="3"/>
  <ellipse cx="100" cy="38" fill="#fff" opacity=".8" rx="8" ry="3"/>
  <circle cx="100" cy="56" r="10" fill="#fff"/>
  <circle cx="100" cy="100" r="48" fill="none" stroke="#dcfce7" stroke-width="4"/>
  <circle cx="100" cy="100" r="44" fill="none" stroke="#fff" stroke-width="2" opacity=".7"/>
  <circle cx="100" cy="100" r="36" fill="none" stroke="#dcfce7" stroke-width="1.5" opacity=".8"/>
  <circle cx="100" cy="100" r="30" fill="none" stroke="#fff" opacity=".5"/>
  <g stroke="#dcfce7" stroke-width="1.5" opacity=".6">
    <path d="M100 52v96"/>
    <path d="M52 100h96"/>
    <path d="m66 66 68 68"/>
    <path d="m134 66-68 68"/>
  </g>
  <g class="rotor">
    <ellipse cx="100" cy="68" fill="#fff" rx="8" ry="24"/>
    <ellipse cx="100" cy="132" fill="#fff" rx="8" ry="24"/>
    <ellipse cx="68" cy="100" fill="#fff" rx="24" ry="8"/>
    <ellipse cx="132" cy="100" fill="#fff" rx="24" ry="8"/>
  </g>
  <circle cx="100" cy="100" r="9" fill="#fff"/>
  <ellipse cx="92" cy="92" fill="#fff" opacity=".8" rx="6" ry="4"/>
  <path fill="none" stroke="#bbf7d0" stroke-linecap="round" stroke-width="4" d="M148 88a40 40 0 0 1 0 24" class="arc1"/>
  <path fill="none" stroke="#bbf7d0" stroke-linecap="round" stroke-width="3" d="M156 78a52 52 0 0 1 0 44" class="arc2"/>
  <path fill="none" stroke="#bbf7d0" stroke-linecap="round" stroke-width="4" d="M52 88a40 40 0 0 0 0 24" class="arc3"/>
  <path fill="none" stroke="#bbf7d0" stroke-linecap="round" stroke-width="3" d="M44 78a52 52 0 0 0 0 44" class="arc2" style="animation-delay:.15s"/>
  <circle cx="100" cy="100" r="87" fill="none" stroke="#fff" stroke-opacity=".1" stroke-width="2.5"/>
</svg>
