<svg xmlns="http://www.w3.org/2000/svg" viewBox="0 0 200 200">
  <defs>
    <style>
      .bg{fill:#f1f5f9}.fg{fill:#334155}.dim{fill:#64748b}.hole{fill:#1e293b}
    </style>
  </defs>
  <circle cx="100" cy="100" r="87" class="bg"/>
  <g transform="translate(100 102) scale(1.08) translate(-100 -100)">
    <rect width="120" height="10" x="40" y="70" class="dim" opacity=".8" rx="2"/>
    <rect width="128" height="72" x="36" y="54" class="fg" rx="6"/>
    <rect width="120" height="56" x="40" y="60" class="dim" rx="3"/><ellipse cx="72" cy="68" fill="#94a3b8" opacity=".8" rx="15" ry="6"/>
    <rect width="12" height="6" x="52" y="50" class="fg" rx="1"/>
    <rect width="12" height="6" x="136" y="50" class="fg" rx="1"/>
    <circle cx="58" cy="53" r="1.5" class="hole"/>
    <circle cx="142" cy="53" r="1.5" class="hole"/>
    <g fill="none" stroke="#64748b" stroke-width="1.5" opacity=".8">
      <path d="M72 64v44"/>
      <path d="M100 64v44"/>
      <path d="M128 64v44"/>
      <path d="M46 78h108"/>
      <path d="M46 94h108"/>
    </g>
  </g>
  <circle cx="100" cy="100" r="87" fill="none" stroke="#0f172a" stroke-opacity=".1" stroke-width="2.5"/>
</svg>
