<svg xmlns="http://www.w3.org/2000/svg" viewBox="0 0 200 200">
  <defs>
    <style>
      .bg{fill:#f1f5f9}.fg{fill:#334155}.dim{fill:#64748b}.hole{fill:#1e293b}
    </style>
  </defs>
  <circle cx="100" cy="100" r="87" class="bg"/>
  <rect width="120" height="14" x="40" y="44" class="fg" rx="3"/>
  <ellipse cx="100" cy="44" fill="#64748b" opacity=".8" rx="52" ry="3"/>
  <rect width="10" height="100" x="42" y="56" class="dim" rx="3"/>
  <rect width="10" height="100" x="148" y="56" class="dim" rx="3"/>
  <rect width="92" height="96" x="54" y="58" class="fg" rx="3"/>
  <path fill="none" stroke="#f1f5f9" stroke-width="3" d="M100 62v88"/>
  <path fill="none" stroke="#64748b" stroke-width="2" d="M70 62v88" opacity=".8"/>
  <path fill="none" stroke="#64748b" stroke-width="2" d="M85 62v88" opacity=".8"/>
  <path fill="none" stroke="#64748b" stroke-width="2" d="M115 62v88" opacity=".8"/>
  <path fill="none" stroke="#64748b" stroke-width="2" d="M130 62v88" opacity=".8"/>
  <path fill="none" stroke="#475569" stroke-width="1.5" d="M62 68q6 32-2 64" opacity=".3"/>
  <path fill="none" stroke="#475569" stroke-width="1.5" d="M78 66q4 34-2 68" opacity=".3"/>
  <path fill="none" stroke="#475569" stroke-width="1.5" d="M122 66q-4 34 2 68" opacity=".3"/>
  <path fill="none" stroke="#475569" stroke-width="1.5" d="M138 68q-6 32 2 64" opacity=".3"/>
  <rect width="92" height="6" x="54" y="148" class="dim" rx="2"/>
  <ellipse cx="100" cy="154" fill="#475569" opacity=".5" rx="42" ry="2.5"/>
  <circle cx="100" cy="106" r="3" class="hole"/>
  <circle cx="100" cy="100" r="87" fill="none" stroke="#0f172a" stroke-opacity=".1" stroke-width="2.5"/>
</svg>
