<svg xmlns="http://www.w3.org/2000/svg" viewBox="0 0 200 200">
  <defs>
    <linearGradient id="gas_sensor_off_body" x1="0%" x2="0%" y1="0%" y2="100%">
      <stop offset="0%" stop-color="#334155"/>
      <stop offset="100%" stop-color="#475569"/>
    </linearGradient>
    <style>
      .bg{fill:#f1f5f9}.dim{fill:#64748b}.hole{fill:#1e293b}.ok{fill:#22c55e}
    </style>
  </defs>
  <circle cx="100" cy="100" r="87" class="bg"/>
  <rect width="88" height="72" x="56" y="78" fill="url(#gas_sensor_off_body)" rx="14"/>
  <ellipse cx="76" cy="90" fill="#cbd5e1" opacity=".8" rx="12" ry="4"/>
  <g stroke="#1e293b" stroke-linecap="round" stroke-width="3" opacity=".6">
    <path fill="none" d="M70 108h60"/>
    <path fill="none" d="M70 118h60"/>
    <path fill="none" d="M70 128h60"/>
  </g>
  <path d="M100 48C90 62 86 72 86 80s6 14 14 14 14-6 14-14-4-18-14-32Z" class="dim"/>
  <circle cx="128" cy="94" r="6" class="ok"/>
  <path fill="none" stroke="#fff" stroke-linejoin="round" stroke-width="2" d="m124 94 3 3 6-7"/>
  <rect width="44" height="8" x="78" y="136" class="hole" rx="2"/>
  <circle cx="100" cy="100" r="87" fill="none" stroke="#0f172a" stroke-opacity=".1" stroke-width="2.5"/>
</svg>
