<svg xmlns="http://www.w3.org/2000/svg" viewBox="0 0 200 200">
  <defs>
    <radialGradient id="alarm_armed_home_bg" cx="28%" cy="24%" r="72%" fx="22%" fy="18%">
      <stop offset="0%" stop-color="#fff" stop-opacity=".2"/>
      <stop offset="45%" stop-color="#b91c1c"/>
      <stop offset="100%" stop-color="#7f1d1d"/>
    </radialGradient>
    <radialGradient id="alarm_armed_home_sheen" cx="32%" cy="28%" r="68%">
      <stop offset="0%" stop-color="#fff" stop-opacity=".3"/>
      <stop offset="100%" stop-color="#fff" stop-opacity="0"/>
    </radialGradient>
    <linearGradient id="alarm_armed_home_shield" x1="50%" x2="50%" y1="0%" y2="100%">
      <stop offset="0%" stop-color="#fff"/>
      <stop offset="100%" stop-color="#fecaca"/>
    </linearGradient>
    <linearGradient id="alarm_armed_home_panel" x1="0%" x2="0%" y1="0%" y2="100%">
      <stop offset="0%" stop-color="#991b1b"/>
      <stop offset="100%" stop-color="#7f1d1d"/>
    </linearGradient>
    <style>
      @keyframes perimeter-pulse{0%,to{opacity:.45;stroke-width:3}50%{opacity:1;stroke-width:4.5}}@keyframes zone-glow{0%,to{opacity:.55}50%{opacity:1}}@keyframes led-blink{0%,to{opacity:.4}50%{opacity:1}}.perimeter{animation:perimeter-pulse 1.8s ease-in-out infinite}.zone{animation:zone-glow 1.8s ease-in-out infinite}.led{animation:led-blink 1.8s ease-in-out infinite}
    </style>
  </defs>
  <circle cx="100" cy="100" r="87" fill="url(#alarm_armed_home_bg)"/>
  <rect width="56" height="96" x="72" y="52" fill="url(#alarm_armed_home_panel)" rx="6"/>
  <ellipse cx="82" cy="58" fill="#fff" opacity=".3" rx="12" ry="4"/>
  <rect width="48" height="5" x="76" y="56" fill="#ef4444" class="led" rx="2.5"/>
  <rect width="18" height="3" x="78" y="57" fill="#fca5a5" class="led" opacity=".8" rx="1.5"/>
  <rect width="10" height="10" x="80" y="124" fill="#fde68a" class="led" rx="2"/>
  <rect width="10" height="10" x="95" y="124" fill="#fde68a" class="led" rx="2" style="animation-delay:.3s"/>
  <rect width="10" height="10" x="110" y="124" fill="#fde68a" class="led" rx="2" style="animation-delay:.6s"/>
  <path fill="url(#alarm_armed_home_shield)" d="m100 38 52 18v44c0 28-22 52-52 60-30-8-52-32-52-60V56Z"/>
  <path fill="#fde68a" d="m100 76 24 24v24H76v-24Z" class="zone"/>
  <path fill="none" stroke="#fca5a5" d="m100 72 28 26v30H72V98Z" class="perimeter"/>
  <rect width="14" height="18" x="93" y="106" fill="#991b1b" rx="1"/>
  <circle cx="104" cy="116" r="2" fill="#fde68a" class="zone"/>
  <circle cx="100" cy="100" r="87" fill="none" stroke="#fff" stroke-opacity=".1" stroke-width="2.5"/>
  <circle cx="100" cy="100" r="87" fill="url(#alarm_armed_home_sheen)"/>
</svg>
